<svg width="355" height="278" viewBox="0 0 355 278" fill="none" xmlns="http://www.w3.org/2000/svg">
<ellipse cx="188.891" cy="164.329" rx="147.601" ry="41.7733" transform="rotate(-28.5 188.891 164.329)" fill="#5037AC"/>
<path d="M289.459 145.352C290.165 144.923 290.586 144.771 291.058 144.151C291.264 143.88 291.563 143.756 291.748 143.492C291.898 143.278 292.243 143.164 292.346 142.99C292.562 142.625 293.131 142.272 293.456 142.031C293.967 141.652 294.538 141.442 294.921 140.952C295.241 140.543 295.55 140.182 295.858 139.768C296.306 139.166 297.042 138.824 297.359 138.174C297.477 137.932 298.574 136.909 298.901 136.813C299.191 136.728 299.269 136.366 299.496 136.213C299.749 136.042 300.198 135.717 300.375 135.464C300.691 135.012 301.037 134.582 301.415 134.142C301.774 133.725 302.273 133.303 302.588 132.853C302.974 132.301 303.492 131.957 303.87 131.418C304.001 131.23 304.124 130.952 304.236 130.809C304.345 130.669 304.91 130.485 305.088 130.347C305.265 130.211 305.468 129.847 305.589 129.658C305.789 129.345 306.157 129.183 306.357 128.879C306.567 128.559 306.952 128.067 307.323 127.817C308.288 127.167 307.165 127.209 306.683 127.52C306.558 127.601 306.388 127.572 306.282 127.69C306.168 127.815 306.299 127.999 306.213 128.14C306.02 128.459 305.822 128.943 305.573 129.208C305.17 129.639 304.532 129.871 304.197 130.349C304.063 130.541 304.879 129.837 305.044 129.775C305.57 129.576 305.743 129.488 306.149 129.142C306.601 128.756 306.744 128.472 306.776 127.885C306.82 127.076 307.65 126.64 308.149 126.087C309.022 125.122 309.965 124.216 310.781 123.162C310.942 122.953 311.132 122.966 311.256 122.732C311.413 122.435 311.592 122.168 311.743 121.882C311.91 121.566 312.134 121.316 312.246 120.966C312.309 120.77 312.421 120.626 312.507 120.439C312.557 120.331 312.797 120.12 312.678 120.126C312.299 120.145 311.719 121.51 311.485 121.864C311.332 122.096 310.46 123.335 310.443 122.812C310.423 122.185 311.069 121.513 311.397 121.045C311.789 120.485 312.315 120.064 312.798 119.603C312.929 119.478 314.167 118.154 314.185 118.163C314.33 118.236 313.104 120.347 313.339 119.783C313.618 119.114 314.01 118.773 314.4 118.217C314.6 117.931 314.636 117.532 314.827 117.229C314.916 117.088 315.124 116.433 315.056 116.524C314.802 116.863 314.856 117.196 314.662 117.541C314.59 117.671 313.968 118.295 313.915 117.998C313.891 117.859 315.321 116.764 315.493 116.518C315.84 116.023 316.191 115.688 316.395 115.135C316.546 114.726 316.756 114.513 316.999 114.145C317.141 113.929 316.69 114.162 316.642 114.208C316.412 114.427 316.236 114.777 316.022 115.024C315.729 115.363 315.567 115.583 315.183 115.802C315.013 115.898 314.947 115.972 314.862 116.148C314.8 116.277 314.793 116.617 314.676 116.535C314.259 116.243 315.579 114.526 315.663 114.189C315.839 113.479 316.671 112.672 317.098 112.062C317.399 111.632 317.446 111.473 317.914 111.197C318.182 111.039 318.126 111.908 317.908 112.082C317.609 112.321 317.346 113.216 317.15 113.602C316.928 114.04 316.936 113.506 316.901 113.271C316.819 112.715 317.248 112.499 317.418 112.034C317.99 110.47 318.672 108.972 318.81 107.333C318.86 106.739 319.116 106.177 319.094 105.571C319.073 105.025 319.054 104.598 319.153 104.062C319.268 103.436 319.146 102.902 319.036 102.279C318.983 101.976 319.184 101.674 319.116 101.289C319.083 101.098 319.112 100.307 319.31 100.781C319.532 101.311 319.706 101.743 319.807 102.32C319.963 103.203 320.342 104.304 320.129 105.184C320.032 105.583 320.005 105.982 319.887 106.379C319.729 106.91 319.298 107.085 319.162 107.646C319.048 108.119 318.633 108.654 318.717 109.132C318.747 109.302 318.351 110.45 318.485 110.544C318.591 110.619 318.887 108.792 318.995 108.58C319.276 108.026 319.058 107.265 319.104 106.673C319.149 106.102 319.12 105.638 319.02 105.075C318.946 104.655 319.337 104.436 319.35 104.055C319.361 103.719 319.539 103.217 319.62 102.862C319.767 102.216 319.751 101.42 319.78 100.761C319.798 100.363 319.909 101.558 319.87 101.955C319.773 102.974 319.672 103.989 319.544 104.997C319.506 105.294 319.602 106.929 319.429 105.951C319.298 105.204 319.626 104.7 319.603 104.01C319.588 103.534 319.908 102.843 320.049 102.404C320.139 102.123 320.097 101.339 320.302 101.553C320.532 101.795 320.515 102.721 320.574 103.054C320.694 103.736 320.211 101.625 320.462 100.981C320.683 100.415 320.581 99.4845 320.476 98.8918C320.353 98.1944 320.23 97.4971 320.107 96.7998C319.983 96.0976 319.805 95.8223 319.453 95.2532" stroke="#5037AC" stroke-linecap="round" stroke-linejoin="round"/>
<path d="M58.1824 232.966C58.5788 233.244 59.3974 234.241 59.8601 234.356C60.343 234.476 60.909 235.046 60.9898 235.505C61.098 236.118 61.2195 236.563 61.5233 237.096C61.9235 237.799 62.5765 238.306 62.9697 239.033C63.477 239.969 65.1034 240.958 66.0887 241.002C66.6032 241.024 66.9472 241.362 67.3654 241.498C68.0673 241.724 68.6795 241.756 69.3676 241.912C69.8434 242.021 70.3802 242.101 70.8008 242.446C70.9457 242.565 70.2736 241.98 69.8932 242.026C69.2301 242.105 68.772 242.303 69.7313 242.541C70.2471 242.669 70.7881 243.083 71.3483 243.108C72.5722 243.162 73.8125 243.365 74.9846 243.656C75.9142 243.887 77.3482 244.082 78.3164 243.912" stroke="#5037AC" stroke-linecap="round" stroke-linejoin="round"/>
<path d="M78.2935 243.997C79.0559 244.011 79.9324 243.806 80.6883 243.701C81.0824 243.647 81.4387 243.774 81.8227 243.852C81.9754 243.882 81.9962 243.842 81.8091 243.914C81.6038 243.992 81.3996 244.08 81.1827 244.119C80.9288 244.164 80.6749 244.208 80.4211 244.253C80.1587 244.299 79.9735 244.458 79.7388 244.5C79.5643 244.53 79.3897 244.561 79.2152 244.592C78.6967 244.683 79.058 244.599 79.3834 244.611C79.7113 244.624 80.069 244.496 80.3922 244.447C80.7132 244.399 81.0381 244.526 81.3558 244.544C81.6833 244.563 81.9477 244.615 82.2767 244.557C82.5419 244.51 82.8071 244.463 83.0723 244.417C83.2166 244.391 83.7098 244.534 83.4755 244.496C83.1982 244.452 82.9422 244.366 82.6607 244.349C82.5522 244.342 82.3786 244.32 82.2813 244.265C82.0293 244.124 81.7459 244.209 82.1943 244.13C82.5321 244.07 82.8698 244.011 83.2076 243.951C83.8382 243.84 84.4913 244.017 85.1112 243.931C85.4251 243.887 85.3132 243.95 85.0948 243.997C84.8607 244.047 84.647 244.177 84.4199 244.246C84.3344 244.271 83.7463 244.424 84.1037 244.361C84.5106 244.289 84.9175 244.217 85.3244 244.146C85.828 244.057 86.3545 243.915 86.8666 243.905C86.8742 243.905 87.7763 243.963 87.722 244.024C87.6186 244.142 87.1134 244.146 86.9764 244.17C86.7062 244.218 86.4412 244.278 86.1656 244.264C85.8476 244.247 85.5629 244.095 85.2784 243.965C85.1715 243.915 84.8322 243.861 84.948 243.84C85.2825 243.781 85.6858 243.924 86.0328 243.909C86.4726 243.889 86.8658 243.874 87.2999 243.797C87.5035 243.761 86.9266 243.989 86.723 244.025C86.4243 244.078 86.148 244.253 85.83 244.309C85.7247 244.328 85.1353 244.519 85.5177 244.487C85.9482 244.451 86.3793 244.465 86.8048 244.39C87.2173 244.317 87.6299 244.244 88.0424 244.171C88.3189 244.123 88.5667 244.205 88.8461 244.156C89.1134 244.109 89.2982 244.265 89.5653 244.218C89.6486 244.204 90.1148 244.154 90.1027 244.085C90.0697 243.898 89.5008 243.942 89.3503 243.934C89.1734 243.924 89.0292 243.871 88.8505 243.903C88.7491 243.92 88.6313 243.965 88.5317 243.924C88.2285 243.798 87.8815 243.7 87.5625 243.597C87.351 243.528 87.7676 243.582 87.8217 243.576C88.0925 243.544 88.2969 243.486 88.5633 243.547C88.7525 243.59 88.9568 243.487 89.1521 243.506C89.3233 243.523 89.4598 243.526 89.6302 243.513C89.867 243.494 90.2469 243.6 90.4874 243.642C90.8521 243.706 91.2372 243.699 91.5776 243.8C91.5966 243.806 91.8905 243.885 91.8906 243.885C91.9417 244.074 91.1309 244.258 91.0065 244.28C90.5962 244.352 90.1859 244.424 89.7756 244.497C89.3827 244.566 89.2021 244.598 89.711 244.508C90.2063 244.421 90.7016 244.333 91.1969 244.246C92.4353 244.028 93.6516 244.008 94.8794 243.916C95.0882 243.9 95.942 243.71 96.0646 243.858C96.1058 243.907 96.0153 243.842 95.9078 243.843C95.5663 243.847 95.2351 243.913 94.8998 243.972C94.5162 244.039 94.304 244.076 93.9406 243.98C93.1016 243.758 92.1849 243.898 91.3522 243.616C90.9946 243.494 92.0908 243.457 92.4626 243.392C92.8114 243.33 93.1238 243.212 93.4719 243.151C94.1094 243.038 94.7552 242.988 95.3868 242.876C95.5985 242.839 95.822 242.802 96.0092 242.907C96.0841 242.949 96.2241 242.98 96.2016 243.083C96.1576 243.284 95.6351 243.441 96.0155 243.46C96.4027 243.479 96.7827 243.387 97.1619 243.321C97.3919 243.28 97.5694 243.375 97.8023 243.334C97.8986 243.317 98.2178 243.206 98.313 243.247C98.3214 243.251 97.8777 243.566 97.7979 243.587C97.6206 243.635 97.5194 243.759 97.3163 243.798C97.1732 243.826 96.6398 243.917 96.6566 243.914C96.9916 243.855 97.25 243.684 97.6007 243.622C99.0042 243.374 100.368 243.008 101.775 242.76C102.17 242.69 102.566 242.62 102.962 242.55C103.035 242.537 103.531 242.445 103.285 242.493C102.861 242.576 102.463 242.751 102.037 242.836C100.848 243.073 99.7922 243.494 98.5516 243.328C98.169 243.277 97.7838 243.285 97.403 243.236C97.0671 243.193 96.7647 242.977 96.42 243.01C96.1962 243.031 96.3322 243.008 96.4894 243.025C96.7169 243.05 96.9557 242.975 97.1808 243.03C98.0039 243.228 99.0981 242.853 99.9285 242.707C100.246 242.651 100.563 242.595 100.881 242.539C101.074 242.504 101.284 242.441 101.481 242.447C101.629 242.451 101.724 242.516 101.878 242.489C102.679 242.348 103.481 242.206 104.282 242.065C104.792 241.975 105.302 241.885 105.812 241.795C106.064 241.751 106.567 241.662 106.567 241.662C106.567 241.662 105.111 241.964 104.373 242.046C104.112 242.074 103.887 242.009 103.611 242.057C103.285 242.115 102.982 242.069 102.652 242.065C102.17 242.059 101.586 242.288 101.128 242.151C100.956 242.1 101.193 242.105 101.271 242.091C101.602 242.033 101.932 241.968 102.264 241.916C102.646 241.856 103.026 241.908 103.404 241.841C103.705 241.788 104.005 241.735 104.306 241.682C104.72 241.609 105.135 241.536 105.55 241.463C105.938 241.395 106.325 241.326 106.713 241.258C107.134 241.184 106.2 241.522 106.078 241.556C105.693 241.66 105.362 241.787 105.011 241.968C104.92 242.015 104.81 242.014 104.723 242.064C104.643 242.111 105.05 242.056 105.092 242.048C105.73 241.936 106.414 241.8 107.021 241.575C107.427 241.425 107.741 241.203 108.176 241.126C108.5 241.069 108.824 241.012 109.149 240.955C109.466 240.899 109.72 240.728 110.031 240.673C110.11 240.659 110.748 240.485 110.57 240.466C109.977 240.401 109.256 240.717 108.712 240.902C108.318 241.035 107.905 241.222 107.53 241.401C107.425 241.452 107.174 241.588 107.152 241.72C107.148 241.741 107.865 241.623 107.912 241.614C108.532 241.505 109.107 241.395 109.635 241.03C109.95 240.813 110.422 240.605 110.78 240.464C111.199 240.298 111.675 240.024 112.109 239.928C112.457 239.85 112.769 239.685 113.114 239.624C113.338 239.585 113.563 239.545 113.787 239.506C114.253 239.423 114.117 239.572 113.78 239.822C113.201 240.252 112.39 240.298 111.717 240.509C111.315 240.634 110.711 240.766 110.396 241.05C110.344 241.097 110.101 241.173 110.267 241.136C110.638 241.053 110.962 240.887 111.347 240.819C112.303 240.651 113.164 240.432 114.015 239.963C114.255 239.831 114.478 239.673 114.72 239.545C114.851 239.475 115.092 239.415 115.19 239.29C115.29 239.162 115.378 239.113 115.541 239.07C115.691 239.031 115.762 238.905 115.92 238.877C116.1 238.845 116.204 238.821 116.345 238.704C116.471 238.599 116.964 238.525 117.127 238.545C117.402 238.579 117.611 238.535 117.88 238.539C118.032 238.541 118.153 238.665 118.305 238.646C118.374 238.637 118.577 238.598 118.509 238.61C118.201 238.664 117.886 238.742 117.589 238.839C117.451 238.884 117.309 239.008 117.183 239.082C117.051 239.16 116.876 239.103 116.768 239.232C116.695 239.32 116.505 239.405 116.395 239.424C116.075 239.481 115.807 239.601 115.502 239.705C115.391 239.742 115.097 239.809 115.023 239.891C114.786 240.153 114.73 240.223 114.367 240.287" stroke="#5037AC" stroke-linecap="round" stroke-linejoin="round"/>
<path d="M118.259 239.096C118.827 238.996 119.555 238.987 120.043 238.658C120.414 238.409 121.038 238.416 121.473 238.34C121.696 238.3 122.344 238.069 121.733 238.104C121.252 238.132 120.789 238.208 120.315 238.291C119.537 238.429 117.26 239.094 118.036 238.946C118.525 238.852 119.013 238.599 119.48 238.425C119.622 238.372 119.776 238.341 119.889 238.24C120.114 238.041 120.405 238.043 120.668 237.928C121.502 237.562 122.415 237.447 123.214 236.995C123.499 236.833 123.281 236.854 123.103 236.923C122.879 237.011 122.653 237.197 122.462 237.345C122.393 237.398 121.91 237.725 122.137 237.809C122.547 237.96 123.079 237.585 123.352 237.363C123.654 237.118 124.205 236.739 124.628 236.647C124.716 236.629 125.032 236.626 125.064 236.536C125.081 236.49 125.215 236.366 125.157 236.404C125.047 236.474 124.862 236.568 124.774 236.657C124.685 236.745 124.183 237.105 124.312 237.082C124.593 237.032 124.843 236.736 125.126 236.686C125.381 236.641 125.685 236.51 125.916 236.392C126.198 236.248 126.542 236.267 126.808 236.123C127.194 235.914 127.718 235.963 128.074 235.71C128.335 235.525 128.671 235.43 128.993 235.373C129.208 235.335 129.424 235.297 129.639 235.259C130.162 235.167 129.68 235.504 129.461 235.543C129.271 235.576 128.95 235.567 128.797 235.692C128.742 235.736 129.421 235.55 129.56 235.526C129.729 235.496 129.813 235.381 129.964 235.332C130.176 235.262 130.396 235.215 130.599 235.118C130.901 234.973 131.197 234.921 131.522 234.864C131.771 234.82 132.021 234.776 132.27 234.732C132.553 234.682 132.824 234.49 133.092 234.384C133.356 234.279 133.583 234.059 133.847 234.012C134.075 233.972 134.276 233.88 134.496 233.835C134.707 233.791 134.892 233.681 135.081 233.574C135.275 233.463 135.503 233.473 135.698 233.339C136.045 233.101 136.411 232.957 136.805 232.793C137.017 232.705 137.232 232.679 137.407 232.529C137.496 232.453 137.671 232.455 137.783 232.435C137.962 232.403 138.046 232.279 138.19 232.237C138.678 232.094 139.028 232.12 139.354 231.681C139.484 231.505 140.241 231.497 140.451 231.46C140.602 231.433 140.88 231.329 141.026 231.365C141.213 231.411 140.746 231.534 140.72 231.538C140.541 231.57 140.269 231.663 140.168 231.825C140.1 231.933 139.97 231.919 139.856 231.943C139.773 231.961 139.575 232.109 139.66 232.104C139.975 232.084 140.318 231.941 140.585 231.786C141.11 231.484 141.704 231.21 142.276 231.075C142.715 230.97 143.109 230.675 143.549 230.598C143.988 230.52 144.398 230.341 144.805 230.19C144.977 230.127 145.173 230.096 145.314 229.971C145.459 229.842 145.67 229.656 145.855 229.623C146.126 229.575 146.252 229.427 146.521 229.38C146.769 229.336 146.845 229.176 147.031 229.051C147.369 228.823 147.894 228.759 148.292 228.689C148.677 228.621 149.008 228.31 149.412 228.239" stroke="#5037AC" stroke-linecap="round" stroke-linejoin="round"/>
<path d="M149.549 228.656C149.715 228.555 149.874 228.454 150.034 228.346C150.204 228.232 150.416 228.254 150.594 228.121C150.806 227.964 151.058 227.755 151.309 227.666C151.532 227.586 151.813 227.569 152.011 227.433C152.419 227.154 152.84 226.976 153.239 226.68" stroke="#5037AC" stroke-linecap="round" stroke-linejoin="round"/>
<path d="M58.1947 232.701C58.1086 232.213 58.0225 231.724 57.9364 231.236C57.8684 230.85 57.6964 230.62 57.6292 230.239C57.5918 230.027 57.5543 229.814 57.5169 229.602C57.4826 229.408 57.5909 229.277 57.5544 229.07C57.5204 228.877 57.6215 228.705 57.5857 228.502C57.5445 228.268 57.6687 228.228 57.6351 228.037C57.5756 227.7 57.5162 227.363 57.4567 227.025C57.3893 226.643 57.6309 227.81 57.5373 228.186C57.5235 228.242 57.5541 228.323 57.5639 228.378C57.5846 228.496 57.4841 228.574 57.487 228.688C57.4887 228.752 57.3389 229.15 57.28 228.983C57.1552 228.63 57.1376 228.196 57.0724 227.826C57.0308 227.59 56.7924 226.947 56.9123 226.753C57.0252 226.569 56.9251 226.485 56.9392 226.284C56.9571 226.031 56.9953 225.899 56.9478 225.63C56.9164 225.451 56.7207 224.615 56.8055 225.195C56.8412 225.44 56.8273 225.691 56.8716 225.942C56.8886 226.039 56.9911 226.62 56.9321 226.286C56.8569 225.859 56.8187 225.401 56.6989 224.984C56.6303 224.745 56.4377 224.599 56.3909 224.334C56.3538 224.124 56.2562 223.942 56.2174 223.722C56.1518 223.351 56.0863 222.979 56.0208 222.607C55.9664 222.299 55.9641 221.829 55.8188 221.544C55.747 221.404 55.6801 221.241 55.6267 221.097C55.5799 220.97 55.4666 220.877 55.4346 220.773C55.3277 220.426 55.0575 219.752 55.0575 219.752C55.0575 219.752 55.723 221.291 55.8672 222.109C56.0295 223.029 56.3811 223.906 56.5414 224.815C56.6818 225.611 56.8222 226.407 56.9626 227.204C57.0303 227.587 57.0369 227.997 57.1011 228.362C57.1307 228.53 57.3022 229.147 57.1248 228.682C57.0379 228.454 56.9396 228.191 56.8975 227.952C56.6848 226.745 56.4128 225.575 56.2017 224.378C56.154 224.108 56.0801 222.89 55.84 222.865C55.6755 222.848 55.4698 220.973 55.4408 220.808C55.3522 220.306 55.2997 219.798 55.0467 219.36C54.9243 219.147 54.7353 218.94 54.6729 218.688C54.6158 218.458 54.519 218.178 54.3557 218.007" stroke="#5037AC" stroke-linecap="round" stroke-linejoin="round"/>
<path d="M46.3052 198.801C46.4245 199.478 46.5561 199.954 46.9724 200.515C47.0773 200.657 47.1768 200.827 47.2921 200.962C47.4119 201.103 47.4492 201.244 47.5668 201.403C47.6979 201.58 47.7458 201.903 48.0006 201.918C48.1065 201.924 48.2915 202.243 48.3126 202.363C48.3515 202.583 48.4677 202.807 48.618 202.977C48.6714 203.037 48.6901 203.178 48.7408 203.218C48.8195 203.279 48.9257 203.271 48.9539 203.392C49.1374 204.175 49.2553 205.004 49.6127 205.721C49.6983 205.892 49.7238 206.118 49.7983 206.297C49.8923 206.524 50.0844 206.722 50.169 206.951C50.3151 207.345 50.483 207.75 50.6392 208.127C50.7261 208.336 50.7005 208.558 50.8065 208.765C50.9332 209.013 51.0039 209.285 51.1374 209.524C51.1807 209.602 51.1843 209.708 51.1996 209.794C51.2208 209.915 51.3301 209.954 51.3782 210.062C51.4659 210.259 51.6223 210.487 51.7491 210.676C51.9839 211.024 51.9889 211.663 52.0643 212.091C52.1522 212.589 52.359 212.955 52.5581 213.401C52.7418 213.813 52.9787 214.12 53.092 214.566C53.1496 214.793 53.2906 214.947 53.3355 215.202C53.3948 215.539 53.5775 215.763 53.7392 216.043C53.863 216.258 53.8856 216.538 54.0318 216.751C54.1245 216.885 54.1541 216.964 54.1983 217.115C54.2291 217.22 54.3485 217.222 54.3707 217.348C54.4196 217.625 54.5848 217.817 54.6329 218.09C54.656 218.221 54.6564 218.549 54.7865 218.588" stroke="#5037AC" stroke-linecap="round" stroke-linejoin="round"/>
<path d="M59.4754 230.684C58.1418 228.78 43.781 187.649 37.2093 184.583C30.6377 181.518 289.196 38.082 294.622 46.6311C300.048 55.1802 319.715 93.5131 316.639 94.5423C313.563 95.5716 60.8089 232.587 59.4754 230.684Z" fill="#5037AC"/>
<path d="M316.955 90.9549C317.009 91.0284 317.08 91.0885 317.135 91.1618C317.152 91.1838 317.179 91.21 317.19 91.2353C317.205 91.2718 317.216 91.3113 317.228 91.3488C317.246 91.4013 317.258 91.4742 317.295 91.5159C317.303 91.5258 317.305 91.5396 317.309 91.5514C317.314 91.5641 317.327 91.5725 317.335 91.5833C317.347 91.5995 317.364 91.6045 317.374 91.6242" stroke="#5037AC" stroke-linecap="round" stroke-linejoin="round"/>
<path d="M294.82 47.4287C294.928 47.4474 295.036 47.4543 295.145 47.4639C295.179 47.4669 295.211 47.465 295.243 47.4778C295.327 47.5114 295.42 47.5075 295.501 47.548C295.528 47.5614 295.554 47.5767 295.567 47.6042C295.577 47.6247 295.601 47.6257 295.608 47.6477C295.63 47.7113 295.707 47.75 295.766 47.7671C295.793 47.7748 295.834 47.7944 295.853 47.8172C295.866 47.8336 295.888 47.8666 295.911 47.8666" stroke="#5037AC" stroke-linecap="round" stroke-linejoin="round"/>
<path d="M40.9404 188.889C41.0393 189.39 41.3935 189.793 41.6616 190.225C41.8246 190.488 42.0917 190.692 42.2358 190.95C42.6427 191.682 43.3672 192.229 43.7752 192.982C43.8717 193.16 43.9431 193.525 43.9788 193.727C44.0106 193.907 44.0678 193.897 44.0361 193.717C44.0059 193.546 44.1222 194.056 44.1958 194.214C44.3588 194.563 44.5966 194.998 44.6827 195.375C44.7158 195.52 44.726 195.575 44.8302 195.69C45.0465 195.929 45.2651 196.433 45.3362 196.736C45.3934 196.981 45.614 197.174 45.7333 197.388C45.8437 197.587 45.9016 197.819 45.9922 198.038C46.4626 199.172 47.3507 200.024 47.925 201.109C48.0888 201.419 48.0936 201.83 48.2936 202.121C48.501 202.422 48.6457 202.849 48.7647 203.192C48.8069 203.314 48.8994 204.109 48.7261 203.829C48.612 203.645 48.5904 203.469 48.5528 203.256" stroke="#5037AC" stroke-linecap="round" stroke-linejoin="round"/>
<path d="M43.2474 193.266C43.1964 192.976 43.1113 192.913 43.28 193.116C43.3433 193.192 43.3847 193.276 43.4395 193.35" stroke="#5037AC" stroke-linecap="round" stroke-linejoin="round"/>
<path d="M57.6191 226.875C57.5538 226.505 57.5404 226.073 57.3599 225.74" stroke="#5037AC" stroke-linecap="round" stroke-linejoin="round"/>
<path d="M56.2102 227.458C66.2842 298.692 357.384 135.227 317.404 91.6951" stroke="#5E4CB2"/>
<path d="M56.2107 227.457C53.0334 211.892 41.0874 189.647 39.0023 186.461M317.405 91.695C317.665 92.4718 296.114 46.1322 295.597 47.1688" stroke="#5E4CB2"/>
<ellipse cx="165.523" cy="113.767" rx="146.922" ry="41.7733" transform="rotate(-28.5 165.523 113.767)" fill="#5E4CB2"/>
<g opacity="0.9">
<path d="M208.676 76.5278L210.153 75.3927L218.22 69.1932" stroke="#5037AC"/>
<path d="M214.486 72.1204L214.869 71.2722L214.103 72.9685L215.818 72.5778L213.776 73.2061M213.776 73.2061L215.785 74.5961M213.776 73.2061L213.337 74.6648M213.776 73.2061L213.755 73.1531M213.755 73.1531L213.155 71.6629L212.939 70.6793M213.755 73.1531L212.118 72.9862" stroke="#5037AC" stroke-width="0.4"/>
<ellipse cx="187.115" cy="92.1923" rx="7.79577" ry="13.6666" transform="rotate(54 187.115 92.1923)" fill="#5037AC"/>
<path d="M160.883 136.304C164.513 133.667 167.796 130.627 170.545 127.359C173.294 124.09 175.455 120.657 176.905 117.254C178.355 113.852 179.065 110.548 178.995 107.53C178.924 104.512 178.075 101.84 176.496 99.6658C174.916 97.4917 172.637 95.8583 169.789 94.8589C166.94 93.8596 163.578 93.5138 159.894 93.8413C156.211 94.1688 152.278 95.1632 148.319 96.7677C144.361 98.3723 140.456 100.555 136.826 103.193L148.854 119.748L160.883 136.304Z" fill="#5037AC"/>
<ellipse cx="142.844" cy="114.962" rx="13.0579" ry="25.9666" transform="rotate(54 142.844 114.962)" fill="#5037AC"/>
<ellipse cx="151.55" cy="126.945" rx="13.0579" ry="25.9666" transform="rotate(54 151.55 126.945)" fill="#5037AC"/>
<ellipse cx="201.097" cy="81.7927" rx="2.53363" ry="4.44165" transform="rotate(54 201.097 81.7927)" fill="#5037AC"/>
<ellipse cx="162.162" cy="139.229" rx="3.5081" ry="6.14998" transform="rotate(54 162.162 139.229)" fill="#5037AC"/>
<ellipse cx="164.294" cy="142.741" rx="0.974472" ry="1.70833" transform="rotate(54 164.294 142.741)" fill="#5037AC"/>
<ellipse rx="5.53689" ry="4.41269" transform="matrix(-0.564706 0.825292 -0.993783 -0.11133 135.222 100.985)" fill="#5037AC"/>
<ellipse rx="1.53803" ry="1.22575" transform="matrix(-0.564706 0.825292 -0.993783 -0.11133 132.005 98.2372)" fill="#5037AC"/>
<ellipse cx="140.187" cy="146.764" rx="1.36426" ry="2.39166" transform="rotate(54 140.187 146.764)" fill="#5037AC"/>
<ellipse cx="138.825" cy="148.958" rx="0.389789" ry="0.683331" transform="rotate(54 138.825 148.958)" fill="#5037AC"/>
<ellipse cx="120.484" cy="119.644" rx="1.36426" ry="2.39166" transform="rotate(54 120.484 119.644)" fill="#5037AC"/>
<ellipse cx="117.975" cy="120.262" rx="0.389789" ry="0.683331" transform="rotate(54 117.975 120.262)" fill="#5037AC"/>
<ellipse cx="175.703" cy="122.405" rx="1.36426" ry="2.39166" transform="rotate(54 175.703 122.405)" fill="#5037AC"/>
<ellipse cx="178.26" cy="122.498" rx="0.604172" ry="1.05916" transform="rotate(54 178.26 122.498)" fill="#5037AC"/>
<ellipse cx="154.624" cy="93.3943" rx="1.36426" ry="2.39166" transform="rotate(54 154.624 93.3943)" fill="#5037AC"/>
<ellipse cx="155.35" cy="90.9639" rx="0.604172" ry="1.05916" transform="rotate(54 155.35 90.9639)" fill="#5037AC"/>
<path d="M204.529 79.5401L208.951 76.3269L203.146 80.5442L203.672 81.8488L204.292 82.1209L204.417 82.113M204.417 82.113L207.925 81.8902L209.098 81.7608M204.417 82.113L203.443 81.5334L202.297 79.9567L202.001 78.9675L201.972 78.7478L203.37 73.8771" stroke="#5037AC"/>
</g>
</svg>
