<svg width="312" height="116" viewBox="0 0 312 116" fill="none" xmlns="http://www.w3.org/2000/svg">
<path d="M150.266 55.2578L146.398 59.3594V70H140.469V35.875H146.398V51.8828L149.68 47.8281L159.664 35.875H166.836L154.156 50.9922L167.562 70H160.531L150.266 55.2578ZM185 67.5156C183.328 69.4844 180.953 70.4688 177.875 70.4688C175.125 70.4688 173.039 69.6641 171.617 68.0547C170.211 66.4453 169.508 64.1172 169.508 61.0703V44.6406H175.203V61C175.203 64.2188 176.539 65.8281 179.211 65.8281C181.977 65.8281 183.844 64.8359 184.812 62.8516V44.6406H190.508V70H185.141L185 67.5156ZM210.523 63.1094C210.523 62.0938 210.102 61.3203 209.258 60.7891C208.43 60.2578 207.047 59.7891 205.109 59.3828C203.172 58.9766 201.555 58.4609 200.258 57.8359C197.414 56.4609 195.992 54.4688 195.992 51.8594C195.992 49.6719 196.914 47.8438 198.758 46.375C200.602 44.9062 202.945 44.1719 205.789 44.1719C208.82 44.1719 211.266 44.9219 213.125 46.4219C215 47.9219 215.938 49.8672 215.938 52.2578H210.242C210.242 51.1641 209.836 50.2578 209.023 49.5391C208.211 48.8047 207.133 48.4375 205.789 48.4375C204.539 48.4375 203.516 48.7266 202.719 49.3047C201.938 49.8828 201.547 50.6562 201.547 51.625C201.547 52.5 201.914 53.1797 202.648 53.6641C203.383 54.1484 204.867 54.6406 207.102 55.1406C209.336 55.625 211.086 56.2109 212.352 56.8984C213.633 57.5703 214.578 58.3828 215.188 59.3359C215.812 60.2891 216.125 61.4453 216.125 62.8047C216.125 65.0859 215.18 66.9375 213.289 68.3594C211.398 69.7656 208.922 70.4688 205.859 70.4688C203.781 70.4688 201.93 70.0938 200.305 69.3438C198.68 68.5938 197.414 67.5625 196.508 66.25C195.602 64.9375 195.148 63.5234 195.148 62.0078H200.68C200.758 63.3516 201.266 64.3906 202.203 65.125C203.141 65.8438 204.383 66.2031 205.93 66.2031C207.43 66.2031 208.57 65.9219 209.352 65.3594C210.133 64.7812 210.523 64.0312 210.523 63.1094ZM236.258 70C236.008 69.5156 235.789 68.7266 235.602 67.6328C233.789 69.5234 231.57 70.4688 228.945 70.4688C226.398 70.4688 224.32 69.7422 222.711 68.2891C221.102 66.8359 220.297 65.0391 220.297 62.8984C220.297 60.1953 221.297 58.125 223.297 56.6875C225.312 55.2344 228.188 54.5078 231.922 54.5078H235.414V52.8438C235.414 51.5312 235.047 50.4844 234.312 49.7031C233.578 48.9062 232.461 48.5078 230.961 48.5078C229.664 48.5078 228.602 48.8359 227.773 49.4922C226.945 50.1328 226.531 50.9531 226.531 51.9531H220.836C220.836 50.5625 221.297 49.2656 222.219 48.0625C223.141 46.8438 224.391 45.8906 225.969 45.2031C227.562 44.5156 229.336 44.1719 231.289 44.1719C234.258 44.1719 236.625 44.9219 238.391 46.4219C240.156 47.9062 241.062 50 241.109 52.7031V64.1406C241.109 66.4219 241.43 68.2422 242.07 69.6016V70H236.258ZM230 65.8984C231.125 65.8984 232.18 65.625 233.164 65.0781C234.164 64.5312 234.914 63.7969 235.414 62.875V58.0938H232.344C230.234 58.0938 228.648 58.4609 227.586 59.1953C226.523 59.9297 225.992 60.9688 225.992 62.3125C225.992 63.4062 226.352 64.2812 227.07 64.9375C227.805 65.5781 228.781 65.8984 230 65.8984ZM252.43 44.6406L252.594 47.2891C254.375 45.2109 256.812 44.1719 259.906 44.1719C263.297 44.1719 265.617 45.4688 266.867 48.0625C268.711 45.4688 271.305 44.1719 274.648 44.1719C277.445 44.1719 279.523 44.9453 280.883 46.4922C282.258 48.0391 282.961 50.3203 282.992 53.3359V70H277.297V53.5C277.297 51.8906 276.945 50.7109 276.242 49.9609C275.539 49.2109 274.375 48.8359 272.75 48.8359C271.453 48.8359 270.391 49.1875 269.562 49.8906C268.75 50.5781 268.18 51.4844 267.852 52.6094L267.875 70H262.18V53.3125C262.102 50.3281 260.578 48.8359 257.609 48.8359C255.328 48.8359 253.711 49.7656 252.758 51.625V70H247.062V44.6406H252.43ZM303.992 70C303.742 69.5156 303.523 68.7266 303.336 67.6328C301.523 69.5234 299.305 70.4688 296.68 70.4688C294.133 70.4688 292.055 69.7422 290.445 68.2891C288.836 66.8359 288.031 65.0391 288.031 62.8984C288.031 60.1953 289.031 58.125 291.031 56.6875C293.047 55.2344 295.922 54.5078 299.656 54.5078H303.148V52.8438C303.148 51.5312 302.781 50.4844 302.047 49.7031C301.312 48.9062 300.195 48.5078 298.695 48.5078C297.398 48.5078 296.336 48.8359 295.508 49.4922C294.68 50.1328 294.266 50.9531 294.266 51.9531H288.57C288.57 50.5625 289.031 49.2656 289.953 48.0625C290.875 46.8438 292.125 45.8906 293.703 45.2031C295.297 44.5156 297.07 44.1719 299.023 44.1719C301.992 44.1719 304.359 44.9219 306.125 46.4219C307.891 47.9062 308.797 50 308.844 52.7031V64.1406C308.844 66.4219 309.164 68.2422 309.805 69.6016V70H303.992ZM297.734 65.8984C298.859 65.8984 299.914 65.625 300.898 65.0781C301.898 64.5312 302.648 63.7969 303.148 62.875V58.0938H300.078C297.969 58.0938 296.383 58.4609 295.32 59.1953C294.258 59.9297 293.727 60.9688 293.727 62.3125C293.727 63.4062 294.086 64.2812 294.805 64.9375C295.539 65.5781 296.516 65.8984 297.734 65.8984Z" fill="#9CA3AF"/>
<g clip-path="url(#clip0)">
<path d="M106.594 30.5438C106.927 32.3157 108.451 33.9044 111.392 35.5428C111.554 35.6328 111.933 35.8444 111.839 36.1771C111.72 36.6012 111.105 36.5952 108.773 36.5042L108.77 36.5041C106.448 36.4138 102.942 36.2775 101.761 37.0836C100.364 39.9799 102.5 36.7627 98.183 44.5C93.8661 52.2373 89.9339 59.9 79.8556 66C71.0813 71.6125 35.192 84.3334 30.2932 84.4499C30.1049 84.4544 29.952 84.4068 29.8132 84.3836C29.3261 84.3021 29.1713 84.0865 29.1324 83.888C28.8635 82.5149 34.303 78.8829 44.4412 72.6259C45.1011 72.219 45.7483 71.828 46.3383 71.4611C39.3051 74.644 18.3552 84.1311 7.06117 90.9047C5.79616 91.6635 5.69052 91.6459 5.56028 91.6241L5.55929 91.6239L5.35432 91.5896L5.29846 91.3814L5.2984 91.3812C5.29271 91.3525 5.28737 91.3256 5.28819 91.2962L2.04095 87.3706L1.94608 87.0014L2.13169 86.8794C6.72162 83.6758 14.7579 78.4947 23.3291 72.9688L23.9368 72.577L24.1678 72.4281C34.5834 65.7126 45.3063 58.7991 50.3486 55.1113C52.3227 53.6674 55.1912 51.0005 58.5132 47.9105C65.0715 41.8099 73.2331 34.218 79.8556 31.0222C81.1612 30.3921 82.7329 29.0753 84.3969 27.6809L84.3977 27.6803C87.7103 24.9046 91.833 21.4502 96.2204 21.4464C96.8966 21.4459 97.5568 21.4987 98.183 21.6035C104.633 22.6829 106.252 28.7193 106.594 30.5438Z" fill="#9CA3AF"/>
<rect x="3.08594" y="86.8391" width="35.1482" height="4.73905" transform="rotate(-30.5 3.08594 86.8391)" fill="#9CA3AF"/>
<rect x="25.833" y="78.4351" width="29.549" height="6.8048" transform="rotate(-30.5 25.833 78.4351)" fill="#9CA3AF"/>
<path d="M51.1588 84.5295C50.6768 83.6743 49.8085 81.6156 48.9168 79.3908C48.3376 77.9455 49.5198 76.5069 50.9799 76.8663C51.623 77.0246 52.1558 77.5144 52.3927 78.1577C53.7833 81.9341 55.6219 86.4448 56.8143 87.496C57.4512 88.0572 57.9635 88.3935 58.4269 88.5535C58.8054 88.6842 59.124 88.6908 59.4926 88.6985L59.4933 88.6985C59.7628 88.7042 60.055 88.7117 60.3996 88.7664L62.0497 89.0871C62.2503 89.1261 62.4423 89.1983 62.6133 89.3194C63.0332 89.6169 63.8404 90.2201 64.3397 90.5743C64.5704 90.738 64.7144 91.0616 64.658 91.3352C64.5644 91.7894 63.8462 91.9947 63.3998 91.8881C62.797 91.744 62.1016 91.7931 61.6047 91.7987C61.2069 91.8032 60.7608 91.7571 60.3665 91.7968C59.5573 91.8783 58.1753 91.9028 56.7454 91.4091C55.7837 91.077 54.7922 90.785 53.8079 90.9125L53.2204 90.9887C50.7781 91.3066 50.7597 91.3003 50.6823 91.2735C50.2358 91.1189 49.9487 90.5962 49.9512 89.9421C49.9552 89.0713 50.4792 88.2653 51.1191 88.145L51.183 88.133C51.9477 87.9906 52.371 87.108 52.0388 86.355C51.7761 85.7589 51.5043 85.1426 51.1588 84.5295Z" fill="#9CA3AF"/>
</g>
<g clip-path="url(#clip1)">
<path d="M55.0892 72.7819L19 72.7818C36.1544 58.2372 62.2332 39.9216 84.0001 30.5L55.0892 72.7819Z" fill="#9CA3AF"/>
</g>
<defs>
<clipPath id="clip0">
<rect width="100" height="100" fill="white" transform="translate(16.5049) rotate(9.5)"/>
</clipPath>
<clipPath id="clip1">
<rect width="78" height="100" fill="white" transform="translate(5 10)"/>
</clipPath>
</defs>
</svg>
