<svg width="39" height="40" viewBox="0 0 39 40" fill="none" xmlns="http://www.w3.org/2000/svg">
<g opacity="0.9">
<path d="M27.0887 10.6684L27.3614 10.2904L28.8503 8.22571" stroke="white"/>
<path d="M28.1718 9.20072L28.1395 8.91677L28.2042 9.48467L28.693 9.35707L28.1413 9.56375M28.1413 9.56375L29.0578 10.0346M28.1413 9.56375L28.2689 10.0526M28.1413 9.56375L28.1244 9.54593M28.1244 9.54593L27.6506 9.04438L27.3972 8.7137M28.1244 9.54593L27.5572 9.48648" stroke="white" stroke-width="0.4"/>
<circle cx="22.941" cy="15.8825" r="3.41667" transform="rotate(38.5 22.941 15.8825)" fill="white"/>
<path d="M22.5552 30.6373C23.2535 29.7595 23.7634 28.7458 24.0558 27.6542C24.3481 26.5626 24.4173 25.4144 24.2593 24.2752C24.1013 23.136 23.7192 22.0281 23.1348 21.0148C22.5504 20.0015 21.7752 19.1026 20.8535 18.3694C19.9317 17.6362 18.8815 17.0831 17.7627 16.7416C16.6439 16.4002 15.4784 16.2771 14.3329 16.3794C13.1874 16.4817 12.0842 16.8074 11.0863 17.3378C10.0884 17.8683 9.21544 18.5931 8.51716 19.471L15.5362 25.0542L22.5552 30.6373Z" fill="white"/>
<ellipse cx="12.6769" cy="23.4348" rx="5.72292" ry="6.49167" transform="rotate(38.5 12.6769 23.4348)" fill="white"/>
<ellipse cx="17.7575" cy="27.476" rx="5.72292" ry="6.49167" transform="rotate(38.5 17.7575 27.476)" fill="white"/>
<circle cx="25.5857" cy="12.4201" r="1.11042" transform="rotate(38.5 25.5857 12.4201)" fill="white"/>
<circle cx="23.5184" cy="31.622" r="1.5375" transform="rotate(38.5 23.5184 31.622)" fill="white"/>
<circle cx="24.8694" cy="32.8054" r="0.427083" transform="rotate(38.5 24.8694 32.8054)" fill="white"/>
<circle cx="7.58105" cy="18.7266" r="1.5375" transform="rotate(96.5 7.58105 18.7266)" fill="white"/>
<circle cx="6.01633" cy="17.7973" r="0.427083" transform="rotate(96.5 6.01633 17.7973)" fill="white"/>
<circle cx="17.7224" cy="34.1059" r="0.597917" transform="rotate(38.5 17.7224 34.1059)" fill="white"/>
<circle cx="17.6846" cy="34.8397" r="0.170833" transform="rotate(38.5 17.6846 34.8397)" fill="white"/>
<circle cx="6.22487" cy="24.9603" r="0.597917" transform="rotate(38.5 6.22487 24.9603)" fill="white"/>
<circle cx="5.51832" cy="25.1623" r="0.170833" transform="rotate(38.5 5.51832 25.1623)" fill="white"/>
<circle cx="24.8235" cy="26.002" r="0.597917" transform="rotate(38.5 24.8235 26.002)" fill="white"/>
<circle cx="25.6784" cy="26.0386" r="0.264792" transform="rotate(38.5 25.6784 26.0386)" fill="white"/>
<circle cx="12.5235" cy="16.2184" r="0.597917" transform="rotate(38.5 12.5235 16.2184)" fill="white"/>
<circle cx="12.309" cy="15.404" r="0.264792" transform="rotate(38.5 12.309 15.404)" fill="white"/>
<path d="M26.2908 11.671L27.1416 10.6014L26.0249 12.0052L26.4397 12.4443L26.6934 12.537L26.7328 12.5346M26.7328 12.5346L27.8404 12.4671L28.2005 12.4261M26.7328 12.5346L26.306 12.338L25.6375 11.8062L25.3564 11.4735L25.306 11.3997L24.8581 9.7674" stroke="white"/>
</g>
</svg>
