<svg width="272" height="83" viewBox="0 0 272 83" fill="none" xmlns="http://www.w3.org/2000/svg">
<path d="M89.3984 50.3203V63H83.4688V28.875H96.5234C100.336 28.875 103.359 29.8672 105.594 31.8516C107.844 33.8359 108.969 36.4609 108.969 39.7266C108.969 43.0703 107.867 45.6719 105.664 47.5312C103.477 49.3906 100.406 50.3203 96.4531 50.3203H89.3984ZM89.3984 45.5625H96.5234C98.6328 45.5625 100.242 45.0703 101.352 44.0859C102.461 43.0859 103.016 41.6484 103.016 39.7734C103.016 37.9297 102.453 36.4609 101.328 35.3672C100.203 34.2578 98.6562 33.6875 96.6875 33.6562H89.3984V45.5625ZM112.227 50.0859C112.227 47.6016 112.719 45.3672 113.703 43.3828C114.688 41.3828 116.07 39.8516 117.852 38.7891C119.633 37.7109 121.68 37.1719 123.992 37.1719C127.414 37.1719 130.188 38.2734 132.312 40.4766C134.453 42.6797 135.609 45.6016 135.781 49.2422L135.805 50.5781C135.805 53.0781 135.32 55.3125 134.352 57.2812C133.398 59.25 132.023 60.7734 130.227 61.8516C128.445 62.9297 126.383 63.4688 124.039 63.4688C120.461 63.4688 117.594 62.2812 115.438 59.9062C113.297 57.5156 112.227 54.3359 112.227 50.3672V50.0859ZM117.922 50.5781C117.922 53.1875 118.461 55.2344 119.539 56.7188C120.617 58.1875 122.117 58.9219 124.039 58.9219C125.961 58.9219 127.453 58.1719 128.516 56.6719C129.594 55.1719 130.133 52.9766 130.133 50.0859C130.133 47.5234 129.578 45.4922 128.469 43.9922C127.375 42.4922 125.883 41.7422 123.992 41.7422C122.133 41.7422 120.656 42.4844 119.562 43.9688C118.469 45.4375 117.922 47.6406 117.922 50.5781ZM146.68 63H140.984V27H146.68V63ZM161.141 52.125L158.609 54.7266V63H152.914V27H158.609V47.7656L160.391 45.5391L167.398 37.6406H174.242L164.82 48.2109L175.25 63H168.664L161.141 52.125ZM193.133 63C192.883 62.5156 192.664 61.7266 192.477 60.6328C190.664 62.5234 188.445 63.4688 185.82 63.4688C183.273 63.4688 181.195 62.7422 179.586 61.2891C177.977 59.8359 177.172 58.0391 177.172 55.8984C177.172 53.1953 178.172 51.125 180.172 49.6875C182.188 48.2344 185.062 47.5078 188.797 47.5078H192.289V45.8438C192.289 44.5312 191.922 43.4844 191.188 42.7031C190.453 41.9062 189.336 41.5078 187.836 41.5078C186.539 41.5078 185.477 41.8359 184.648 42.4922C183.82 43.1328 183.406 43.9531 183.406 44.9531H177.711C177.711 43.5625 178.172 42.2656 179.094 41.0625C180.016 39.8438 181.266 38.8906 182.844 38.2031C184.438 37.5156 186.211 37.1719 188.164 37.1719C191.133 37.1719 193.5 37.9219 195.266 39.4219C197.031 40.9062 197.938 43 197.984 45.7031V57.1406C197.984 59.4219 198.305 61.2422 198.945 62.6016V63H193.133ZM186.875 58.8984C188 58.8984 189.055 58.625 190.039 58.0781C191.039 57.5312 191.789 56.7969 192.289 55.875V51.0938H189.219C187.109 51.0938 185.523 51.4609 184.461 52.1953C183.398 52.9297 182.867 53.9688 182.867 55.3125C182.867 56.4062 183.227 57.2812 183.945 57.9375C184.68 58.5781 185.656 58.8984 186.875 58.8984ZM202.883 50.1328C202.883 46.2266 203.789 43.0938 205.602 40.7344C207.414 38.3594 209.844 37.1719 212.891 37.1719C215.578 37.1719 217.75 38.1094 219.406 39.9844V27H225.102V63H219.945L219.664 60.375C217.961 62.4375 215.688 63.4688 212.844 63.4688C209.875 63.4688 207.469 62.2734 205.625 59.8828C203.797 57.4922 202.883 54.2422 202.883 50.1328ZM208.578 50.625C208.578 53.2031 209.07 55.2188 210.055 56.6719C211.055 58.1094 212.469 58.8281 214.297 58.8281C216.625 58.8281 218.328 57.7891 219.406 55.7109V44.8828C218.359 42.8516 216.672 41.8359 214.344 41.8359C212.5 41.8359 211.078 42.5703 210.078 44.0391C209.078 45.4922 208.578 47.6875 208.578 50.625ZM229.977 50.0859C229.977 47.6016 230.469 45.3672 231.453 43.3828C232.438 41.3828 233.82 39.8516 235.602 38.7891C237.383 37.7109 239.43 37.1719 241.742 37.1719C245.164 37.1719 247.938 38.2734 250.062 40.4766C252.203 42.6797 253.359 45.6016 253.531 49.2422L253.555 50.5781C253.555 53.0781 253.07 55.3125 252.102 57.2812C251.148 59.25 249.773 60.7734 247.977 61.8516C246.195 62.9297 244.133 63.4688 241.789 63.4688C238.211 63.4688 235.344 62.2812 233.188 59.9062C231.047 57.5156 229.977 54.3359 229.977 50.3672V50.0859ZM235.672 50.5781C235.672 53.1875 236.211 55.2344 237.289 56.7188C238.367 58.1875 239.867 58.9219 241.789 58.9219C243.711 58.9219 245.203 58.1719 246.266 56.6719C247.344 55.1719 247.883 52.9766 247.883 50.0859C247.883 47.5234 247.328 45.4922 246.219 43.9922C245.125 42.4922 243.633 41.7422 241.742 41.7422C239.883 41.7422 238.406 42.4844 237.312 43.9688C236.219 45.4375 235.672 47.6406 235.672 50.5781ZM265.508 31.4766V37.6406H269.984V41.8594H265.508V56.0156C265.508 56.9844 265.695 57.6875 266.07 58.125C266.461 58.5469 267.148 58.7578 268.133 58.7578C268.789 58.7578 269.453 58.6797 270.125 58.5234V62.9297C268.828 63.2891 267.578 63.4688 266.375 63.4688C262 63.4688 259.812 61.0547 259.812 56.2266V41.8594H255.641V37.6406H259.812V31.4766H265.508Z" fill="#9CA3AF"/>
<rect x="19.3553" y="24.8139" width="10" height="55.51" rx="5" transform="rotate(12 19.3553 24.8139)" fill="#9CA3AF" stroke="#9CA3AF" stroke-width="2"/>
<circle cx="31.5" cy="74.5" r="5.5" fill="#9CA3AF"/>
<path d="M38.0393 58.9028C33.4507 60.1791 28.6558 60.3365 24.047 59.4035C20.5042 58.6863 18.954 54.7808 20.3081 51.4294C21.3306 48.8988 23.7868 47.2421 26.5162 47.2421H32.6864C36.1586 47.2421 39.5346 46.1015 42.2953 43.9957L42.9462 43.4991C47.0763 40.3487 49.5 35.4517 49.5 30.2572C49.5 28.5976 49.2519 26.9474 48.7641 25.3611L48.6918 25.1262C47.2867 20.5579 44.1492 16.7211 39.9508 14.437L39.3197 14.0936C35.6227 12.0823 31.3866 11.2852 27.2114 11.8152L22.8837 12.3646C19.6546 12.7746 16.6798 14.3294 14.4997 16.7465C12.2469 19.2444 11 22.4886 11 25.8523V34.1912C11 36.7287 9.28564 38.9457 6.82979 39.5842C4.09095 40.2962 1.19492 38.8476 0.621753 36.0763C-0.435163 30.9662 -0.146403 25.6382 1.50185 20.6269C3.67037 14.0337 8.05791 8.39636 13.9169 4.67545C19.7758 0.95453 26.7437 -0.619756 33.6333 0.220828C40.5229 1.06141 46.9078 4.26485 51.7003 9.28533C56.4927 14.3058 59.3961 20.8327 59.9158 27.7539C60.4355 34.675 58.5392 41.5623 54.5502 47.2421C50.5611 52.9219 44.7261 57.0428 38.0393 58.9028Z" fill="#9CA3AF"/>
</svg>
