<svg width="312" height="79" viewBox="0 0 312 79" fill="none" xmlns="http://www.w3.org/2000/svg">
<path d="M125.305 52.2109C125.305 50.7109 124.773 49.5547 123.711 48.7422C122.664 47.9297 120.766 47.1094 118.016 46.2812C115.266 45.4531 113.078 44.5312 111.453 43.5156C108.344 41.5625 106.789 39.0156 106.789 35.875C106.789 33.125 107.906 30.8594 110.141 29.0781C112.391 27.2969 115.305 26.4062 118.883 26.4062C121.258 26.4062 123.375 26.8438 125.234 27.7188C127.094 28.5938 128.555 29.8438 129.617 31.4688C130.68 33.0781 131.211 34.8672 131.211 36.8359H125.305C125.305 35.0547 124.742 33.6641 123.617 32.6641C122.508 31.6484 120.914 31.1406 118.836 31.1406C116.898 31.1406 115.391 31.5547 114.312 32.3828C113.25 33.2109 112.719 34.3672 112.719 35.8516C112.719 37.1016 113.297 38.1484 114.453 38.9922C115.609 39.8203 117.516 40.6328 120.172 41.4297C122.828 42.2109 124.961 43.1094 126.57 44.125C128.18 45.125 129.359 46.2812 130.109 47.5938C130.859 48.8906 131.234 50.4141 131.234 52.1641C131.234 55.0078 130.141 57.2734 127.953 58.9609C125.781 60.6328 122.828 61.4688 119.094 61.4688C116.625 61.4688 114.352 61.0156 112.273 60.1094C110.211 59.1875 108.602 57.9219 107.445 56.3125C106.305 54.7031 105.734 52.8281 105.734 50.6875H111.664C111.664 52.625 112.305 54.125 113.586 55.1875C114.867 56.25 116.703 56.7812 119.094 56.7812C121.156 56.7812 122.703 56.3672 123.734 55.5391C124.781 54.6953 125.305 53.5859 125.305 52.2109ZM151.25 58.5156C149.578 60.4844 147.203 61.4688 144.125 61.4688C141.375 61.4688 139.289 60.6641 137.867 59.0547C136.461 57.4453 135.758 55.1172 135.758 52.0703V35.6406H141.453V52C141.453 55.2188 142.789 56.8281 145.461 56.8281C148.227 56.8281 150.094 55.8359 151.062 53.8516V35.6406H156.758V61H151.391L151.25 58.5156ZM184.812 48.5781C184.812 52.5156 183.93 55.6484 182.164 57.9766C180.414 60.3047 178 61.4688 174.922 61.4688C171.953 61.4688 169.641 60.3984 167.984 58.2578L167.703 61H162.547V25H168.242V38.0781C169.883 36.1406 172.094 35.1719 174.875 35.1719C177.969 35.1719 180.398 36.3203 182.164 38.6172C183.93 40.9141 184.812 44.125 184.812 48.25V48.5781ZM179.117 48.0859C179.117 45.3359 178.633 43.2734 177.664 41.8984C176.695 40.5234 175.289 39.8359 173.445 39.8359C170.977 39.8359 169.242 40.9141 168.242 43.0703V53.5234C169.258 55.7266 171.008 56.8281 173.492 56.8281C175.273 56.8281 176.648 56.1641 177.617 54.8359C178.586 53.5078 179.086 51.5 179.117 48.8125V48.0859ZM203.82 54.1094C203.82 53.0938 203.398 52.3203 202.555 51.7891C201.727 51.2578 200.344 50.7891 198.406 50.3828C196.469 49.9766 194.852 49.4609 193.555 48.8359C190.711 47.4609 189.289 45.4688 189.289 42.8594C189.289 40.6719 190.211 38.8438 192.055 37.375C193.898 35.9062 196.242 35.1719 199.086 35.1719C202.117 35.1719 204.562 35.9219 206.422 37.4219C208.297 38.9219 209.234 40.8672 209.234 43.2578H203.539C203.539 42.1641 203.133 41.2578 202.32 40.5391C201.508 39.8047 200.43 39.4375 199.086 39.4375C197.836 39.4375 196.812 39.7266 196.016 40.3047C195.234 40.8828 194.844 41.6562 194.844 42.625C194.844 43.5 195.211 44.1797 195.945 44.6641C196.68 45.1484 198.164 45.6406 200.398 46.1406C202.633 46.625 204.383 47.2109 205.648 47.8984C206.93 48.5703 207.875 49.3828 208.484 50.3359C209.109 51.2891 209.422 52.4453 209.422 53.8047C209.422 56.0859 208.477 57.9375 206.586 59.3594C204.695 60.7656 202.219 61.4688 199.156 61.4688C197.078 61.4688 195.227 61.0938 193.602 60.3438C191.977 59.5938 190.711 58.5625 189.805 57.25C188.898 55.9375 188.445 54.5234 188.445 53.0078H193.977C194.055 54.3516 194.562 55.3906 195.5 56.125C196.438 56.8438 197.68 57.2031 199.227 57.2031C200.727 57.2031 201.867 56.9219 202.648 56.3594C203.43 55.7812 203.82 55.0312 203.82 54.1094ZM221.539 29.4766V35.6406H226.016V39.8594H221.539V54.0156C221.539 54.9844 221.727 55.6875 222.102 56.125C222.492 56.5469 223.18 56.7578 224.164 56.7578C224.82 56.7578 225.484 56.6797 226.156 56.5234V60.9297C224.859 61.2891 223.609 61.4688 222.406 61.4688C218.031 61.4688 215.844 59.0547 215.844 54.2266V39.8594H211.672V35.6406H215.844V29.4766H221.539ZM243.664 40.8438C242.914 40.7188 242.141 40.6562 241.344 40.6562C238.734 40.6562 236.977 41.6562 236.07 43.6562V61H230.375V35.6406H235.812L235.953 38.4766C237.328 36.2734 239.234 35.1719 241.672 35.1719C242.484 35.1719 243.156 35.2812 243.688 35.5L243.664 40.8438ZM261.711 61C261.461 60.5156 261.242 59.7266 261.055 58.6328C259.242 60.5234 257.023 61.4688 254.398 61.4688C251.852 61.4688 249.773 60.7422 248.164 59.2891C246.555 57.8359 245.75 56.0391 245.75 53.8984C245.75 51.1953 246.75 49.125 248.75 47.6875C250.766 46.2344 253.641 45.5078 257.375 45.5078H260.867V43.8438C260.867 42.5312 260.5 41.4844 259.766 40.7031C259.031 39.9062 257.914 39.5078 256.414 39.5078C255.117 39.5078 254.055 39.8359 253.227 40.4922C252.398 41.1328 251.984 41.9531 251.984 42.9531H246.289C246.289 41.5625 246.75 40.2656 247.672 39.0625C248.594 37.8438 249.844 36.8906 251.422 36.2031C253.016 35.5156 254.789 35.1719 256.742 35.1719C259.711 35.1719 262.078 35.9219 263.844 37.4219C265.609 38.9062 266.516 41 266.562 43.7031V55.1406C266.562 57.4219 266.883 59.2422 267.523 60.6016V61H261.711ZM255.453 56.8984C256.578 56.8984 257.633 56.625 258.617 56.0781C259.617 55.5312 260.367 54.7969 260.867 53.875V49.0938H257.797C255.688 49.0938 254.102 49.4609 253.039 50.1953C251.977 50.9297 251.445 51.9688 251.445 53.3125C251.445 54.4062 251.805 55.2812 252.523 55.9375C253.258 56.5781 254.234 56.8984 255.453 56.8984ZM279.664 29.4766V35.6406H284.141V39.8594H279.664V54.0156C279.664 54.9844 279.852 55.6875 280.227 56.125C280.617 56.5469 281.305 56.7578 282.289 56.7578C282.945 56.7578 283.609 56.6797 284.281 56.5234V60.9297C282.984 61.2891 281.734 61.4688 280.531 61.4688C276.156 61.4688 273.969 59.0547 273.969 54.2266V39.8594H269.797V35.6406H273.969V29.4766H279.664ZM299.68 61.4688C296.07 61.4688 293.141 60.3359 290.891 58.0703C288.656 55.7891 287.539 52.7578 287.539 48.9766V48.2734C287.539 45.7422 288.023 43.4844 288.992 41.5C289.977 39.5 291.352 37.9453 293.117 36.8359C294.883 35.7266 296.852 35.1719 299.023 35.1719C302.477 35.1719 305.141 36.2734 307.016 38.4766C308.906 40.6797 309.852 43.7969 309.852 47.8281V50.125H293.281C293.453 52.2188 294.148 53.875 295.367 55.0938C296.602 56.3125 298.148 56.9219 300.008 56.9219C302.617 56.9219 304.742 55.8672 306.383 53.7578L309.453 56.6875C308.438 58.2031 307.078 59.3828 305.375 60.2266C303.688 61.0547 301.789 61.4688 299.68 61.4688ZM299 39.7422C297.438 39.7422 296.172 40.2891 295.203 41.3828C294.25 42.4766 293.641 44 293.375 45.9531H304.227V45.5312C304.102 43.625 303.594 42.1875 302.703 41.2188C301.812 40.2344 300.578 39.7422 299 39.7422Z" fill="#9CA3AF"/>
<path d="M1 21.5L35 1M41 4.5L1 28M1 33.5L45 8M1 39.5L51 10.5M1 46L56.5 14M1 52.5L61.5 17M67.5 19.5L1 58.5M6.5 62L67.5 26M67.5 33.5L11.5 65M17 68.5L67.5 39.5M67.5 46L22.5 71M28 74.5L67.5 52.5M67.5 58.5L33.5 78" stroke="#9CA3AF" stroke-opacity="0.45" stroke-width="1.4"/>
<path d="M30 22.5L24 26.5L43.5 39L24 51.5M45 26.5L24 39L43.5 51.5L38 56.5" stroke="#9CA3AF" stroke-width="2.9"/>
</svg>
