<svg width="326" height="95" viewBox="0 0 326 95" fill="none" xmlns="http://www.w3.org/2000/svg">
<circle cx="47.5" cy="47.5" r="47.5" fill="#9CA3AF" fill-opacity="0.35"/>
<path d="M34.8053 40.2141L30.0873 41.8693L30.0873 41.8693L34.8053 40.2141ZM64.8502 32.775V28.025H54.8502V32.775H64.8502ZM29.2002 28.025V35.8685H39.2002V28.025H29.2002ZM30.0873 41.8693C32.1438 47.7313 36.3013 52.3167 39.2259 55.0078C40.7242 56.3865 42.0418 57.3983 42.8534 57.9569C43.0505 58.0926 43.278 58.2431 43.5031 58.3756C43.5829 58.4227 43.8227 58.5635 44.1266 58.6965C44.1888 58.7237 44.7045 58.9605 45.3995 59.0667C45.6264 59.1013 46.7937 59.2912 48.1271 58.7208C48.9262 58.3789 49.8259 57.7409 50.4566 56.683C51.0709 55.6527 51.1895 54.6275 51.1574 53.9005C51.1024 52.652 50.5891 51.7842 50.4784 51.5945C50.2891 51.2702 50.1032 51.0363 50.0098 50.9232C49.8149 50.6871 49.6384 50.5175 49.5661 50.4492C49.3988 50.2907 49.2435 50.1638 49.1569 50.0942C48.9613 49.9371 48.7364 49.7706 48.5064 49.6063L42.694 57.7437C42.8513 57.8561 42.9069 57.9005 42.8953 57.8911C42.8889 57.886 42.8696 57.8704 42.841 57.846C42.8155 57.8243 42.761 57.7772 42.6908 57.7107C42.6411 57.6636 42.4813 57.5114 42.2977 57.289C42.2099 57.1826 42.0282 56.9546 41.8417 56.6352C41.7339 56.4503 41.2221 55.5865 41.1671 54.341C41.1352 53.6155 41.2535 52.5916 41.8672 51.5622C42.4973 50.5053 43.396 49.8681 44.1939 49.5268C45.5247 48.9575 46.6882 49.1475 46.9099 49.1814C47.5945 49.286 48.0946 49.5174 48.1361 49.5355C48.2918 49.6037 48.4062 49.6639 48.4547 49.6899C48.5128 49.7211 48.5549 49.7455 48.5758 49.7578C48.6395 49.7953 48.6294 49.7927 48.523 49.7194C48.1205 49.4424 47.1692 48.7276 45.9971 47.6491C43.5809 45.4258 40.7918 42.1742 39.5234 38.5589L30.0873 41.8693ZM29.2002 35.8685C29.2002 37.5576 29.3252 39.6971 30.0873 41.8693L39.5234 38.5589C39.3105 37.9519 39.2002 37.1248 39.2002 35.8685H29.2002ZM47.0252 10.2C37.1807 10.2 29.2002 18.1805 29.2002 28.025H39.2002C39.2002 23.7034 42.7036 20.2 47.0252 20.2V10.2ZM64.8502 28.025C64.8502 18.1805 56.8697 10.2 47.0252 10.2V20.2C51.3468 20.2 54.8502 23.7034 54.8502 28.025H64.8502Z" fill="#9CA3AF"/>
<path d="M60.2026 54.3086L64.9332 52.6894L64.9332 52.6894L60.2026 54.3086ZM30.1498 61.75L30.1498 66.5H40.1498V61.75H30.1498ZM65.7998 66.5V58.6565H55.7998V66.5H65.7998ZM64.9332 52.6894C62.9459 46.8834 59.0011 42.2187 56.3815 39.5234C55.0293 38.1321 53.9182 37.1547 53.4891 36.7697C53.3139 36.6126 53.4144 36.6968 53.5439 36.8322C53.5658 36.855 53.7644 37.0585 53.9772 37.3556C54.049 37.456 54.3765 37.9075 54.6152 38.5731C54.7007 38.8116 55.791 41.8984 53.0809 44.1226C51.9824 45.0241 50.8293 45.205 50.2594 45.2448C49.6572 45.2869 49.1817 45.2095 48.9425 45.1621C48.4606 45.0668 48.1056 44.9202 47.9952 44.8741C47.7241 44.761 47.5281 44.6491 47.4967 44.6315C47.378 44.5646 47.3806 44.5632 48.0513 45.0103L53.5983 36.6898C53.2729 36.4728 52.7197 36.0961 52.4033 35.9179C52.3473 35.8864 52.1321 35.7647 51.8474 35.6459C51.7302 35.597 51.3697 35.4485 50.8837 35.3524C50.6424 35.3046 50.1652 35.227 49.5616 35.2692C48.9903 35.3092 47.8361 35.4904 46.7369 36.3925C44.0253 38.6179 45.1155 41.7069 45.2021 41.9486C45.442 42.6174 45.7719 43.0732 45.8475 43.1788C46.0678 43.4862 46.279 43.7042 46.3184 43.7453C46.5181 43.9541 46.7681 44.1746 46.8117 44.2137C47.2575 44.6136 48.1281 45.3793 49.2104 46.493C51.46 48.8075 54.1962 52.2003 55.472 55.9278L64.9332 52.6894ZM65.7998 58.6565C65.7998 56.9562 65.6695 54.8406 64.9332 52.6894L55.472 55.9278C55.6895 56.5632 55.7998 57.4115 55.7998 58.6565H65.7998ZM47.9748 84.325C57.8193 84.325 65.7998 76.3445 65.7998 66.5H55.7998C55.7998 70.8216 52.2964 74.325 47.9748 74.325V84.325ZM30.1498 66.5C30.1498 76.3445 38.1303 84.325 47.9748 84.325V74.325C43.6532 74.325 40.1498 70.8216 40.1498 66.5H30.1498Z" fill="#9CA3AF"/>
<path d="M48.5035 49.9422C47.9561 49.5372 47.3407 49.2354 46.6923 49.0542C46.0438 48.8729 45.3751 48.8157 44.7243 48.8858C44.0735 48.9559 43.4534 49.152 42.8993 49.4627C42.3452 49.7735 41.868 50.1929 41.495 50.6971C41.1219 51.2012 40.8603 51.7802 40.7251 52.4009C40.59 53.0217 40.5838 53.672 40.707 54.3149C40.8303 54.9578 41.0805 55.5805 41.4434 56.1476C41.8063 56.7147 42.2748 57.215 42.8221 57.62L45.6628 53.7811L48.5035 49.9422Z" fill="#9CA3AF"/>
<path d="M47.6083 44.5361C48.2044 44.9772 48.8681 45.3148 49.5613 45.5298C50.2546 45.7447 50.9639 45.8327 51.6488 45.7887C52.3337 45.7447 52.9807 45.5696 53.5529 45.2734C54.1251 44.9772 54.6113 44.5657 54.9837 44.0624C55.3562 43.5591 55.6076 42.9738 55.7235 42.34C55.8395 41.7062 55.8177 41.0363 55.6596 40.3684C55.5014 39.7006 55.2099 39.048 54.8016 38.4479C54.3934 37.8477 53.8765 37.3118 53.2804 36.8707L50.4443 40.7034L47.6083 44.5361Z" fill="#9CA3AF"/>
<path d="M136.305 55.2109C136.305 53.7109 135.773 52.5547 134.711 51.7422C133.664 50.9297 131.766 50.1094 129.016 49.2812C126.266 48.4531 124.078 47.5312 122.453 46.5156C119.344 44.5625 117.789 42.0156 117.789 38.875C117.789 36.125 118.906 33.8594 121.141 32.0781C123.391 30.2969 126.305 29.4062 129.883 29.4062C132.258 29.4062 134.375 29.8438 136.234 30.7188C138.094 31.5938 139.555 32.8438 140.617 34.4688C141.68 36.0781 142.211 37.8672 142.211 39.8359H136.305C136.305 38.0547 135.742 36.6641 134.617 35.6641C133.508 34.6484 131.914 34.1406 129.836 34.1406C127.898 34.1406 126.391 34.5547 125.312 35.3828C124.25 36.2109 123.719 37.3672 123.719 38.8516C123.719 40.1016 124.297 41.1484 125.453 41.9922C126.609 42.8203 128.516 43.6328 131.172 44.4297C133.828 45.2109 135.961 46.1094 137.57 47.125C139.18 48.125 140.359 49.2812 141.109 50.5938C141.859 51.8906 142.234 53.4141 142.234 55.1641C142.234 58.0078 141.141 60.2734 138.953 61.9609C136.781 63.6328 133.828 64.4688 130.094 64.4688C127.625 64.4688 125.352 64.0156 123.273 63.1094C121.211 62.1875 119.602 60.9219 118.445 59.3125C117.305 57.7031 116.734 55.8281 116.734 53.6875H122.664C122.664 55.625 123.305 57.125 124.586 58.1875C125.867 59.25 127.703 59.7812 130.094 59.7812C132.156 59.7812 133.703 59.3672 134.734 58.5391C135.781 57.6953 136.305 56.5859 136.305 55.2109ZM162.25 61.5156C160.578 63.4844 158.203 64.4688 155.125 64.4688C152.375 64.4688 150.289 63.6641 148.867 62.0547C147.461 60.4453 146.758 58.1172 146.758 55.0703V38.6406H152.453V55C152.453 58.2188 153.789 59.8281 156.461 59.8281C159.227 59.8281 161.094 58.8359 162.062 56.8516V38.6406H167.758V64H162.391L162.25 61.5156ZM195.812 51.5781C195.812 55.5156 194.93 58.6484 193.164 60.9766C191.414 63.3047 189 64.4688 185.922 64.4688C182.953 64.4688 180.641 63.3984 178.984 61.2578L178.703 64H173.547V28H179.242V41.0781C180.883 39.1406 183.094 38.1719 185.875 38.1719C188.969 38.1719 191.398 39.3203 193.164 41.6172C194.93 43.9141 195.812 47.125 195.812 51.25V51.5781ZM190.117 51.0859C190.117 48.3359 189.633 46.2734 188.664 44.8984C187.695 43.5234 186.289 42.8359 184.445 42.8359C181.977 42.8359 180.242 43.9141 179.242 46.0703V56.5234C180.258 58.7266 182.008 59.8281 184.492 59.8281C186.273 59.8281 187.648 59.1641 188.617 57.8359C189.586 56.5078 190.086 54.5 190.117 51.8125V51.0859ZM214.82 57.1094C214.82 56.0938 214.398 55.3203 213.555 54.7891C212.727 54.2578 211.344 53.7891 209.406 53.3828C207.469 52.9766 205.852 52.4609 204.555 51.8359C201.711 50.4609 200.289 48.4688 200.289 45.8594C200.289 43.6719 201.211 41.8438 203.055 40.375C204.898 38.9062 207.242 38.1719 210.086 38.1719C213.117 38.1719 215.562 38.9219 217.422 40.4219C219.297 41.9219 220.234 43.8672 220.234 46.2578H214.539C214.539 45.1641 214.133 44.2578 213.32 43.5391C212.508 42.8047 211.43 42.4375 210.086 42.4375C208.836 42.4375 207.812 42.7266 207.016 43.3047C206.234 43.8828 205.844 44.6562 205.844 45.625C205.844 46.5 206.211 47.1797 206.945 47.6641C207.68 48.1484 209.164 48.6406 211.398 49.1406C213.633 49.625 215.383 50.2109 216.648 50.8984C217.93 51.5703 218.875 52.3828 219.484 53.3359C220.109 54.2891 220.422 55.4453 220.422 56.8047C220.422 59.0859 219.477 60.9375 217.586 62.3594C215.695 63.7656 213.219 64.4688 210.156 64.4688C208.078 64.4688 206.227 64.0938 204.602 63.3438C202.977 62.5938 201.711 61.5625 200.805 60.25C199.898 58.9375 199.445 57.5234 199.445 56.0078H204.977C205.055 57.3516 205.562 58.3906 206.5 59.125C207.438 59.8438 208.68 60.2031 210.227 60.2031C211.727 60.2031 212.867 59.9219 213.648 59.3594C214.43 58.7812 214.82 58.0312 214.82 57.1094ZM224.336 51.0859C224.336 48.6016 224.828 46.3672 225.812 44.3828C226.797 42.3828 228.18 40.8516 229.961 39.7891C231.742 38.7109 233.789 38.1719 236.102 38.1719C239.523 38.1719 242.297 39.2734 244.422 41.4766C246.562 43.6797 247.719 46.6016 247.891 50.2422L247.914 51.5781C247.914 54.0781 247.43 56.3125 246.461 58.2812C245.508 60.25 244.133 61.7734 242.336 62.8516C240.555 63.9297 238.492 64.4688 236.148 64.4688C232.57 64.4688 229.703 63.2812 227.547 60.9062C225.406 58.5156 224.336 55.3359 224.336 51.3672V51.0859ZM230.031 51.5781C230.031 54.1875 230.57 56.2344 231.648 57.7188C232.727 59.1875 234.227 59.9219 236.148 59.9219C238.07 59.9219 239.562 59.1719 240.625 57.6719C241.703 56.1719 242.242 53.9766 242.242 51.0859C242.242 48.5234 241.688 46.4922 240.578 44.9922C239.484 43.4922 237.992 42.7422 236.102 42.7422C234.242 42.7422 232.766 43.4844 231.672 44.9688C230.578 46.4375 230.031 48.6406 230.031 51.5781ZM263.148 59.9219C264.57 59.9219 265.75 59.5078 266.688 58.6797C267.625 57.8516 268.125 56.8281 268.188 55.6094H273.555C273.492 57.1875 273 58.6641 272.078 60.0391C271.156 61.3984 269.906 62.4766 268.328 63.2734C266.75 64.0703 265.047 64.4688 263.219 64.4688C259.672 64.4688 256.859 63.3203 254.781 61.0234C252.703 58.7266 251.664 55.5547 251.664 51.5078V50.9219C251.664 47.0625 252.695 43.9766 254.758 41.6641C256.82 39.3359 259.633 38.1719 263.195 38.1719C266.211 38.1719 268.664 39.0547 270.555 40.8203C272.461 42.5703 273.461 44.875 273.555 47.7344H268.188C268.125 46.2812 267.625 45.0859 266.688 44.1484C265.766 43.2109 264.586 42.7422 263.148 42.7422C261.305 42.7422 259.883 43.4141 258.883 44.7578C257.883 46.0859 257.375 48.1094 257.359 50.8281V51.7422C257.359 54.4922 257.852 56.5469 258.836 57.9062C259.836 59.25 261.273 59.9219 263.148 59.9219ZM283.914 64H278.219V38.6406H283.914V64ZM277.867 32.0547C277.867 31.1797 278.141 30.4531 278.688 29.875C279.25 29.2969 280.047 29.0078 281.078 29.0078C282.109 29.0078 282.906 29.2969 283.469 29.875C284.031 30.4531 284.312 31.1797 284.312 32.0547C284.312 32.9141 284.031 33.6328 283.469 34.2109C282.906 34.7734 282.109 35.0547 281.078 35.0547C280.047 35.0547 279.25 34.7734 278.688 34.2109C278.141 33.6328 277.867 32.9141 277.867 32.0547ZM305.289 64C305.039 63.5156 304.82 62.7266 304.633 61.6328C302.82 63.5234 300.602 64.4688 297.977 64.4688C295.43 64.4688 293.352 63.7422 291.742 62.2891C290.133 60.8359 289.328 59.0391 289.328 56.8984C289.328 54.1953 290.328 52.125 292.328 50.6875C294.344 49.2344 297.219 48.5078 300.953 48.5078H304.445V46.8438C304.445 45.5312 304.078 44.4844 303.344 43.7031C302.609 42.9062 301.492 42.5078 299.992 42.5078C298.695 42.5078 297.633 42.8359 296.805 43.4922C295.977 44.1328 295.562 44.9531 295.562 45.9531H289.867C289.867 44.5625 290.328 43.2656 291.25 42.0625C292.172 40.8438 293.422 39.8906 295 39.2031C296.594 38.5156 298.367 38.1719 300.32 38.1719C303.289 38.1719 305.656 38.9219 307.422 40.4219C309.188 41.9062 310.094 44 310.141 46.7031V58.1406C310.141 60.4219 310.461 62.2422 311.102 63.6016V64H305.289ZM299.031 59.8984C300.156 59.8984 301.211 59.625 302.195 59.0781C303.195 58.5312 303.945 57.7969 304.445 56.875V52.0938H301.375C299.266 52.0938 297.68 52.4609 296.617 53.1953C295.555 53.9297 295.023 54.9688 295.023 56.3125C295.023 57.4062 295.383 58.2812 296.102 58.9375C296.836 59.5781 297.812 59.8984 299.031 59.8984ZM322.164 64H316.469V28H322.164V64Z" fill="#9CA3AF"/>
</svg>
